<svg width="32" height="32" viewBox="0 0 30 30" fill="none" xmlns="http://www.w3.org/2000/svg">
  <path d="M24.9938 8.35999a5.37522 5.37522 0 002.3587-2.9675 10.7383 10.7383 0 01-3.4062 1.30125c-1.6656-1.76184-4.3044-2.1906-6.442-1.04668-2.1377 1.14391-3.2449 3.57729-2.703 5.94044-4.313-.2165-8.33132-2.25387-11.05503-5.60501-1.42145 2.45177-.69506 5.58601 1.66 7.16251a5.34589 5.34589 0 01-2.42875-.6725v.0675c.00049 2.5539 1.80046 4.7538 4.30375 5.26a5.37579 5.37579 0 01-2.4225.0925c.704 2.1841 2.71694 3.6803 5.01125 3.725a10.76228 10.76228 0 01-6.6625 2.2962 10.88455 10.88455 0 01-1.28125-.0737A15.18404 15.18404 0 0010.15 26.25c4.0566.0278 7.9551-1.5714 10.8234-4.44 2.8684-2.8686 4.4673-6.7672 4.4391-10.8238 0-.2325-.0054-.4637-.0162-.6937a10.90132 10.90132 0 002.6775-2.77751 10.72465 10.72465 0 01-3.08.845z" fill="#fff"/>
</svg>
